<mxfile host="app.diagrams.net" agent="Mozilla/5.0 (Windows NT 10.0; Win64; x64) AppleWebKit/537.36 (KHTML, like Gecko) Chrome/132.0.0.0 Safari/537.36" version="26.0.6">
  <diagram name="Page-1" id="5wJj_0s3w5pAwOdf44EX">
    <mxGraphModel dx="1909" dy="2182" grid="1" gridSize="10" guides="1" tooltips="1" connect="1" arrows="1" fold="1" page="1" pageScale="1" pageWidth="827" pageHeight="1169" math="0" shadow="0">
      <root>
        <mxCell id="0" />
        <mxCell id="1" parent="0" />
        <mxCell id="Yl206NnbCBjSbIhclIpD-78" value="&lt;font style=&quot;font-size: 19px;&quot;&gt;UML MODEL FOR THE INTERACTIONS BETWEEN A &lt;b style=&quot;&quot;&gt;&lt;u&gt;SHOP&lt;/u&gt;&lt;/b&gt; AND A &lt;b style=&quot;&quot;&gt;CUSTOMER&lt;/b&gt;&lt;/font&gt;" style="text;html=1;align=center;verticalAlign=middle;resizable=0;points=[];autosize=1;strokeColor=none;fillColor=none;strokeWidth=1;rounded=1;" vertex="1" parent="1">
          <mxGeometry x="115" y="-300" width="720" height="40" as="geometry" />
        </mxCell>
        <mxCell id="Yl206NnbCBjSbIhclIpD-85" value="&lt;p style=&quot;margin:0px;margin-top:4px;text-align:center;&quot;&gt;&lt;b&gt;Shop&lt;/b&gt;&lt;/p&gt;" style="verticalAlign=top;align=left;overflow=fill;html=1;whiteSpace=wrap;" vertex="1" parent="1">
          <mxGeometry x="210" y="-230" width="290" height="960" as="geometry" />
        </mxCell>
        <mxCell id="Yl206NnbCBjSbIhclIpD-86" value="&lt;p style=&quot;margin:0px;margin-top:4px;text-align:center;&quot;&gt;&lt;b&gt;Customer&lt;/b&gt;&lt;/p&gt;" style="verticalAlign=top;align=left;overflow=fill;html=1;whiteSpace=wrap;" vertex="1" parent="1">
          <mxGeometry x="500" y="-230" width="320" height="960" as="geometry" />
        </mxCell>
        <mxCell id="Yl206NnbCBjSbIhclIpD-89" style="edgeStyle=orthogonalEdgeStyle;rounded=0;orthogonalLoop=1;jettySize=auto;html=1;entryX=0.5;entryY=0;entryDx=0;entryDy=0;" edge="1" parent="1" source="Yl206NnbCBjSbIhclIpD-87" target="Yl206NnbCBjSbIhclIpD-88">
          <mxGeometry relative="1" as="geometry" />
        </mxCell>
        <mxCell id="Yl206NnbCBjSbIhclIpD-87" value="" style="ellipse;fillColor=strokeColor;html=1;" vertex="1" parent="1">
          <mxGeometry x="340" y="-180" width="30" height="30" as="geometry" />
        </mxCell>
        <mxCell id="Yl206NnbCBjSbIhclIpD-91" style="edgeStyle=orthogonalEdgeStyle;rounded=0;orthogonalLoop=1;jettySize=auto;html=1;entryX=0.5;entryY=0;entryDx=0;entryDy=0;" edge="1" parent="1" source="Yl206NnbCBjSbIhclIpD-88" target="Yl206NnbCBjSbIhclIpD-90">
          <mxGeometry relative="1" as="geometry" />
        </mxCell>
        <mxCell id="Yl206NnbCBjSbIhclIpD-88" value="Send offer to Customer" style="html=1;whiteSpace=wrap;" vertex="1" parent="1">
          <mxGeometry x="300" y="-110" width="110" height="50" as="geometry" />
        </mxCell>
        <mxCell id="Yl206NnbCBjSbIhclIpD-94" style="edgeStyle=orthogonalEdgeStyle;rounded=0;orthogonalLoop=1;jettySize=auto;html=1;entryX=0.5;entryY=0;entryDx=0;entryDy=0;" edge="1" parent="1" source="Yl206NnbCBjSbIhclIpD-90" target="Yl206NnbCBjSbIhclIpD-93">
          <mxGeometry relative="1" as="geometry" />
        </mxCell>
        <mxCell id="Yl206NnbCBjSbIhclIpD-100" value="accepted" style="edgeLabel;html=1;align=center;verticalAlign=middle;resizable=0;points=[];" vertex="1" connectable="0" parent="Yl206NnbCBjSbIhclIpD-94">
          <mxGeometry x="0.0142" y="2" relative="1" as="geometry">
            <mxPoint as="offset" />
          </mxGeometry>
        </mxCell>
        <mxCell id="Yl206NnbCBjSbIhclIpD-95" style="edgeStyle=orthogonalEdgeStyle;rounded=0;orthogonalLoop=1;jettySize=auto;html=1;entryX=0.5;entryY=0;entryDx=0;entryDy=0;" edge="1" parent="1" source="Yl206NnbCBjSbIhclIpD-90" target="Yl206NnbCBjSbIhclIpD-92">
          <mxGeometry relative="1" as="geometry" />
        </mxCell>
        <mxCell id="Yl206NnbCBjSbIhclIpD-101" value="declined" style="edgeLabel;html=1;align=center;verticalAlign=middle;resizable=0;points=[];" vertex="1" connectable="0" parent="Yl206NnbCBjSbIhclIpD-95">
          <mxGeometry x="0.0025" relative="1" as="geometry">
            <mxPoint as="offset" />
          </mxGeometry>
        </mxCell>
        <mxCell id="Yl206NnbCBjSbIhclIpD-90" value="" style="rhombus;whiteSpace=wrap;html=1;" vertex="1" parent="1">
          <mxGeometry x="630" y="-60" width="40" height="40" as="geometry" />
        </mxCell>
        <mxCell id="Yl206NnbCBjSbIhclIpD-97" style="edgeStyle=orthogonalEdgeStyle;rounded=0;orthogonalLoop=1;jettySize=auto;html=1;entryX=0.5;entryY=0;entryDx=0;entryDy=0;" edge="1" parent="1" source="Yl206NnbCBjSbIhclIpD-92">
          <mxGeometry relative="1" as="geometry">
            <mxPoint x="735" y="80" as="targetPoint" />
          </mxGeometry>
        </mxCell>
        <mxCell id="Yl206NnbCBjSbIhclIpD-92" value="Offer Rejected" style="html=1;whiteSpace=wrap;" vertex="1" parent="1">
          <mxGeometry x="700" width="70" height="40" as="geometry" />
        </mxCell>
        <mxCell id="Yl206NnbCBjSbIhclIpD-115" style="edgeStyle=orthogonalEdgeStyle;rounded=0;orthogonalLoop=1;jettySize=auto;html=1;entryX=0.5;entryY=0;entryDx=0;entryDy=0;" edge="1" parent="1" source="Yl206NnbCBjSbIhclIpD-93" target="Yl206NnbCBjSbIhclIpD-102">
          <mxGeometry relative="1" as="geometry" />
        </mxCell>
        <mxCell id="Yl206NnbCBjSbIhclIpD-93" value="Offer Accepted" style="html=1;whiteSpace=wrap;" vertex="1" parent="1">
          <mxGeometry x="550" y="20" width="80" height="50" as="geometry" />
        </mxCell>
        <mxCell id="Yl206NnbCBjSbIhclIpD-98" value="" style="shape=sumEllipse;perimeter=ellipsePerimeter;html=1;backgroundOutline=1;" vertex="1" parent="1">
          <mxGeometry x="720" y="80" width="30" height="30" as="geometry" />
        </mxCell>
        <mxCell id="Yl206NnbCBjSbIhclIpD-102" value="Send Payment" style="html=1;whiteSpace=wrap;" vertex="1" parent="1">
          <mxGeometry x="550" y="140" width="80" height="50" as="geometry" />
        </mxCell>
        <mxCell id="Yl206NnbCBjSbIhclIpD-104" value="Payment Confirmation" style="html=1;shape=mxgraph.infographic.ribbonSimple;notch1=0;notch2=20;align=center;verticalAlign=middle;fontSize=14;fontStyle=0;fillColor=#FFFFFF;whiteSpace=wrap;" vertex="1" parent="1">
          <mxGeometry x="540" y="240" width="140" height="40" as="geometry" />
        </mxCell>
        <mxCell id="Yl206NnbCBjSbIhclIpD-105" value="Payment Received" style="html=1;shape=mxgraph.infographic.ribbonSimple;notch1=20;notch2=0;align=center;verticalAlign=middle;fontSize=14;fontStyle=0;fillColor=#FFFFFF;flipH=0;spacingRight=0;spacingLeft=14;whiteSpace=wrap;" vertex="1" parent="1">
          <mxGeometry x="280" y="240" width="170" height="40" as="geometry" />
        </mxCell>
        <mxCell id="Yl206NnbCBjSbIhclIpD-113" style="edgeStyle=orthogonalEdgeStyle;rounded=0;orthogonalLoop=1;jettySize=auto;html=1;entryX=0.5;entryY=0;entryDx=0;entryDy=0;" edge="1" parent="1" source="Yl206NnbCBjSbIhclIpD-108" target="Yl206NnbCBjSbIhclIpD-111">
          <mxGeometry relative="1" as="geometry" />
        </mxCell>
        <mxCell id="Yl206NnbCBjSbIhclIpD-114" style="edgeStyle=orthogonalEdgeStyle;rounded=0;orthogonalLoop=1;jettySize=auto;html=1;entryX=0.5;entryY=0;entryDx=0;entryDy=0;" edge="1" parent="1" source="Yl206NnbCBjSbIhclIpD-108" target="Yl206NnbCBjSbIhclIpD-112">
          <mxGeometry relative="1" as="geometry" />
        </mxCell>
        <mxCell id="Yl206NnbCBjSbIhclIpD-108" value="" style="html=1;points=[];perimeter=orthogonalPerimeter;fillColor=strokeColor;direction=south;" vertex="1" parent="1">
          <mxGeometry x="319" y="340" width="95" height="10" as="geometry" />
        </mxCell>
        <mxCell id="Yl206NnbCBjSbIhclIpD-111" value="Dispatch Goods" style="html=1;whiteSpace=wrap;" vertex="1" parent="1">
          <mxGeometry x="240" y="410" width="90" height="50" as="geometry" />
        </mxCell>
        <mxCell id="Yl206NnbCBjSbIhclIpD-121" style="edgeStyle=orthogonalEdgeStyle;rounded=0;orthogonalLoop=1;jettySize=auto;html=1;entryX=0;entryY=0.5;entryDx=0;entryDy=0;" edge="1" parent="1" source="Yl206NnbCBjSbIhclIpD-112" target="Yl206NnbCBjSbIhclIpD-119">
          <mxGeometry relative="1" as="geometry" />
        </mxCell>
        <mxCell id="Yl206NnbCBjSbIhclIpD-112" value="Send Invoice" style="html=1;whiteSpace=wrap;" vertex="1" parent="1">
          <mxGeometry x="390" y="410" width="90" height="50" as="geometry" />
        </mxCell>
        <mxCell id="Yl206NnbCBjSbIhclIpD-116" style="edgeStyle=orthogonalEdgeStyle;rounded=0;orthogonalLoop=1;jettySize=auto;html=1;entryX=0.352;entryY=0.042;entryDx=0;entryDy=0;entryPerimeter=0;" edge="1" parent="1" source="Yl206NnbCBjSbIhclIpD-102" target="Yl206NnbCBjSbIhclIpD-104">
          <mxGeometry relative="1" as="geometry" />
        </mxCell>
        <mxCell id="Yl206NnbCBjSbIhclIpD-118" style="edgeStyle=orthogonalEdgeStyle;rounded=0;orthogonalLoop=1;jettySize=auto;html=1;entryX=-0.108;entryY=0.513;entryDx=0;entryDy=0;entryPerimeter=0;" edge="1" parent="1" source="Yl206NnbCBjSbIhclIpD-105" target="Yl206NnbCBjSbIhclIpD-108">
          <mxGeometry relative="1" as="geometry" />
        </mxCell>
        <mxCell id="Yl206NnbCBjSbIhclIpD-119" value="Receive Invoice" style="html=1;whiteSpace=wrap;" vertex="1" parent="1">
          <mxGeometry x="680" y="400" width="80" height="50" as="geometry" />
        </mxCell>
        <mxCell id="Yl206NnbCBjSbIhclIpD-127" style="edgeStyle=orthogonalEdgeStyle;rounded=0;orthogonalLoop=1;jettySize=auto;html=1;entryX=0.5;entryY=1;entryDx=0;entryDy=0;startArrow=classic;startFill=1;endArrow=none;endFill=0;" edge="1" parent="1" source="Yl206NnbCBjSbIhclIpD-120" target="Yl206NnbCBjSbIhclIpD-111">
          <mxGeometry relative="1" as="geometry" />
        </mxCell>
        <mxCell id="Yl206NnbCBjSbIhclIpD-120" value="Receive Goods" style="html=1;whiteSpace=wrap;" vertex="1" parent="1">
          <mxGeometry x="540" y="490" width="80" height="50" as="geometry" />
        </mxCell>
        <mxCell id="Yl206NnbCBjSbIhclIpD-133" style="edgeStyle=orthogonalEdgeStyle;rounded=0;orthogonalLoop=1;jettySize=auto;html=1;entryX=0.5;entryY=0;entryDx=0;entryDy=0;dashed=1;endArrow=block;endFill=0;" edge="1" parent="1" source="Yl206NnbCBjSbIhclIpD-131" target="Yl206NnbCBjSbIhclIpD-119">
          <mxGeometry relative="1" as="geometry" />
        </mxCell>
        <mxCell id="Yl206NnbCBjSbIhclIpD-131" value="Invoice" style="shape=note2;boundedLbl=1;whiteSpace=wrap;html=1;size=25;verticalAlign=top;align=center;" vertex="1" parent="1">
          <mxGeometry x="600" y="330" width="70" height="50" as="geometry" />
        </mxCell>
        <mxCell id="Yl206NnbCBjSbIhclIpD-132" style="edgeStyle=orthogonalEdgeStyle;rounded=0;orthogonalLoop=1;jettySize=auto;html=1;entryX=0;entryY=0.5;entryDx=0;entryDy=0;entryPerimeter=0;dashed=1;endArrow=block;endFill=0;" edge="1" parent="1" source="Yl206NnbCBjSbIhclIpD-112" target="Yl206NnbCBjSbIhclIpD-131">
          <mxGeometry relative="1" as="geometry" />
        </mxCell>
        <mxCell id="Yl206NnbCBjSbIhclIpD-139" style="edgeStyle=orthogonalEdgeStyle;rounded=0;orthogonalLoop=1;jettySize=auto;html=1;entryX=0.5;entryY=0;entryDx=0;entryDy=0;" edge="1" parent="1" source="Yl206NnbCBjSbIhclIpD-134" target="Yl206NnbCBjSbIhclIpD-137">
          <mxGeometry relative="1" as="geometry" />
        </mxCell>
        <mxCell id="Yl206NnbCBjSbIhclIpD-134" value="" style="html=1;points=[];perimeter=orthogonalPerimeter;fillColor=strokeColor;direction=south;" vertex="1" parent="1">
          <mxGeometry x="610" y="600" width="80" height="12.5" as="geometry" />
        </mxCell>
        <mxCell id="Yl206NnbCBjSbIhclIpD-135" style="edgeStyle=orthogonalEdgeStyle;rounded=0;orthogonalLoop=1;jettySize=auto;html=1;entryX=0.185;entryY=0.782;entryDx=0;entryDy=0;entryPerimeter=0;" edge="1" parent="1" source="Yl206NnbCBjSbIhclIpD-120" target="Yl206NnbCBjSbIhclIpD-134">
          <mxGeometry relative="1" as="geometry" />
        </mxCell>
        <mxCell id="Yl206NnbCBjSbIhclIpD-136" style="edgeStyle=orthogonalEdgeStyle;rounded=0;orthogonalLoop=1;jettySize=auto;html=1;entryX=0.086;entryY=0.212;entryDx=0;entryDy=0;entryPerimeter=0;" edge="1" parent="1" source="Yl206NnbCBjSbIhclIpD-119" target="Yl206NnbCBjSbIhclIpD-134">
          <mxGeometry relative="1" as="geometry" />
        </mxCell>
        <mxCell id="Yl206NnbCBjSbIhclIpD-137" value="" style="ellipse;html=1;shape=endState;fillColor=strokeColor;" vertex="1" parent="1">
          <mxGeometry x="635" y="670" width="30" height="30" as="geometry" />
        </mxCell>
        <mxCell id="Yl206NnbCBjSbIhclIpD-140" style="edgeStyle=orthogonalEdgeStyle;rounded=0;orthogonalLoop=1;jettySize=auto;html=1;entryX=1;entryY=0.5;entryDx=0;entryDy=0;entryPerimeter=0;" edge="1" parent="1" source="Yl206NnbCBjSbIhclIpD-104" target="Yl206NnbCBjSbIhclIpD-105">
          <mxGeometry relative="1" as="geometry" />
        </mxCell>
      </root>
    </mxGraphModel>
  </diagram>
</mxfile>
